<?xml version="1.0" standalone="no"?>
<!DOCTYPE svg PUBLIC "-//W3C//DTD SVG 20010904//EN"
 "http://www.w3.org/TR/2001/REC-SVG-20010904/DTD/svg10.dtd">
<svg version="1.0" xmlns="http://www.w3.org/2000/svg"
 width="649.000000pt" height="649.000000pt" viewBox="0 0 649.000000 649.000000"
 preserveAspectRatio="xMidYMid meet">
<metadata>
Created by potrace 1.14, written by Peter Selinger 2001-2017
</metadata>
<g transform="translate(0.000000,649.000000) scale(0.100000,-0.100000)"
fill="#000000" stroke="none">
<path d="M3069 6150 c-5 -4 -34 -6 -65 -5 -30 1 -57 -1 -59 -5 -3 -4 -19 -6
-37 -5 -18 2 -37 0 -43 -3 -5 -3 -23 -7 -40 -9 -49 -5 -80 -10 -80 -13 0 -1
-13 -3 -30 -5 -16 -2 -40 -6 -52 -9 -13 -3 -33 -8 -45 -11 -13 -2 -35 -7 -50
-11 -15 -3 -29 -5 -30 -4 -2 0 -29 -8 -60 -19 -32 -11 -58 -17 -58 -14 0 3 -7
0 -15 -7 -8 -7 -15 -10 -15 -6 0 4 -13 0 -30 -9 -16 -8 -31 -15 -32 -14 -4 3
-80 -22 -93 -30 -5 -3 -13 -6 -17 -7 -5 -1 -10 -3 -13 -4 -3 -1 -8 -3 -12 -4
-5 -1 -25 -10 -47 -19 -21 -9 -41 -17 -43 -17 -7 0 -280 -136 -308 -153 -120
-73 -320 -213 -400 -280 -125 -105 -329 -315 -416 -427 -67 -86 -169 -233
-182 -260 -4 -8 -16 -28 -27 -45 -44 -68 -152 -275 -144 -275 3 0 -1 -11 -10
-25 -15 -23 -56 -118 -60 -140 -1 -5 -8 -20 -14 -32 -7 -13 -10 -23 -6 -23 3
0 1 -7 -6 -15 -7 -8 -10 -15 -6 -15 4 0 0 -13 -9 -30 -9 -16 -13 -30 -9 -30 4
0 1 -7 -6 -15 -7 -8 -10 -15 -6 -15 3 0 1 -12 -5 -27 -10 -27 -14 -40 -25 -93
-3 -14 -7 -32 -9 -40 -2 -8 -4 -15 -5 -15 -1 0 -3 -7 -5 -15 -2 -8 -7 -26 -10
-40 -4 -14 -8 -36 -10 -50 -2 -14 -4 -26 -5 -27 -1 -2 -4 -12 -5 -23 -1 -11
-4 -21 -5 -22 -3 -4 -9 -35 -13 -79 -2 -19 -6 -39 -9 -45 -3 -5 -5 -22 -3 -39
1 -16 -1 -34 -4 -40 -3 -5 -7 -35 -9 -65 -5 -84 -4 -518 2 -580 4 -52 8 -76
22 -175 3 -22 7 -51 9 -65 2 -14 4 -25 5 -25 1 0 3 -11 5 -25 4 -33 22 -115
25 -115 1 0 3 -11 5 -25 1 -14 8 -38 14 -55 7 -16 12 -31 12 -32 -1 -2 -1 -4
0 -5 0 -2 2 -11 5 -20 2 -10 6 -26 8 -35 3 -10 5 -19 6 -20 2 -2 4 -7 5 -13 1
-5 4 -12 5 -15 1 -3 3 -8 4 -12 4 -19 28 -90 36 -108 12 -24 31 -78 32 -85 0
-3 5 -14 11 -25 6 -11 11 -22 12 -25 1 -10 110 -227 144 -285 229 -399 575
-770 939 -1007 151 -98 151 -99 317 -181 155 -77 297 -137 335 -142 3 0 11 -4
18 -8 6 -5 12 -6 12 -2 0 3 9 1 21 -5 11 -6 30 -14 42 -16 25 -6 27 -6 87 -23
25 -8 52 -15 60 -16 8 -2 15 -4 15 -6 0 -1 9 -3 20 -5 30 -5 66 -12 100 -19
17 -4 44 -8 60 -10 17 -2 30 -4 30 -5 0 -1 16 -4 35 -5 19 -2 55 -7 80 -10
157 -21 439 -21 635 0 28 3 66 7 85 9 19 2 35 5 35 6 0 1 16 4 35 6 37 4 75
11 75 14 0 1 11 3 25 5 39 5 115 22 115 25 0 2 13 5 55 13 14 3 36 10 50 15
14 5 28 10 33 11 4 0 9 2 12 2 3 1 10 3 15 4 6 1 12 4 15 5 3 1 8 3 13 4 17 4
88 29 97 35 6 3 13 6 18 7 4 1 9 3 12 4 3 1 8 3 13 5 7 2 54 20 82 32 8 3 17
7 20 8 3 0 23 9 45 19 476 213 934 606 1244 1068 28 42 51 79 51 82 0 3 13 24
29 48 35 54 178 344 187 381 3 15 10 30 15 33 5 3 9 13 9 22 0 9 6 29 14 43 7
14 17 39 21 55 5 16 9 31 10 34 6 22 28 97 30 105 1 6 5 17 8 25 7 17 28 96
33 125 13 73 16 93 19 115 2 14 4 25 5 25 2 0 9 43 14 95 2 19 5 35 6 35 2 0
4 18 6 40 2 22 6 69 9 105 10 111 6 565 -5 565 -1 0 -3 23 -5 50 -2 28 -7 68
-10 90 -3 22 -8 51 -10 65 -7 55 -22 135 -25 135 -1 0 -3 9 -5 20 -4 25 -9 44
-18 70 -3 11 -8 31 -11 45 -4 24 -60 208 -73 240 -4 8 -7 17 -7 20 -5 24 -62
150 -120 269 -93 188 -89 181 -164 296 -250 385 -649 755 -1037 960 -33 18
-77 42 -98 53 -20 12 -39 22 -42 22 -8 1 -99 40 -117 50 -10 6 -37 17 -60 25
-76 27 -252 86 -273 91 -11 3 -27 7 -35 9 -8 2 -17 4 -20 6 -3 1 -9 3 -15 4
-5 2 -12 4 -15 5 -3 1 -12 3 -20 5 -8 2 -28 6 -45 10 -16 3 -41 8 -55 10 -14
2 -26 4 -27 5 -2 1 -12 4 -23 5 -11 1 -21 3 -22 4 -4 3 -54 11 -98 16 -19 2
-37 4 -40 6 -3 1 -23 3 -45 4 -22 1 -42 4 -45 5 -21 10 -436 19 -451 10z"/>
</g>
</svg>
